<svg width="19" height="18" viewBox="0 0 19 18" fill="none" xmlns="http://www.w3.org/2000/svg">
<path d="M16.6487 10.7617H6.97894L7.19483 11.8379H16.0489C16.5569 11.8379 16.9335 12.3188 16.8209 12.8239L16.6389 13.6403C17.2554 13.9454 17.6806 14.5898 17.6806 15.3354C17.6806 16.3848 16.8388 17.2337 15.8062 17.2185C14.8224 17.2041 14.0134 16.3902 13.9868 15.3875C13.9723 14.8397 14.1875 14.3433 14.5411 13.9902H7.6256C7.9679 14.3321 8.18056 14.8083 8.18056 15.3354C8.18056 16.4053 7.3055 17.2669 6.24526 17.2167C5.30384 17.1721 4.5382 16.3966 4.48872 15.437C4.45052 14.696 4.83296 14.0429 5.41401 13.7022L3.09684 2.15234H0.791667C0.354436 2.15234 0 1.79098 0 1.34521V0.807129C0 0.361358 0.354436 0 0.791667 0H4.1737C4.54978 0 4.87393 0.269749 4.9493 0.645367L5.25165 2.15234H18.208C18.716 2.15234 19.0926 2.63329 18.98 3.13835L17.4206 10.1335C17.3387 10.5009 17.0183 10.7617 16.6487 10.7617ZM13.4583 5.6499H11.875V4.30469C11.875 4.00749 11.6387 3.7666 11.3472 3.7666H10.8194C10.5279 3.7666 10.2917 4.00749 10.2917 4.30469V5.6499H8.70834C8.41684 5.6499 8.18056 5.8908 8.18056 6.18799V6.72607C8.18056 7.02326 8.41684 7.26416 8.70834 7.26416H10.2917V8.60937C10.2917 8.90656 10.5279 9.14746 10.8194 9.14746H11.3472C11.6387 9.14746 11.875 8.90656 11.875 8.60937V7.26416H13.4583C13.7498 7.26416 13.9861 7.02326 13.9861 6.72607V6.18799C13.9861 5.8908 13.7498 5.6499 13.4583 5.6499Z" fill="white"/>
</svg>
